<svg xmlns="http://www.w3.org/2000/svg" xmlns:xlink="http://www.w3.org/1999/xlink" width="1920" zoomAndPan="magnify" viewBox="0 0 1440 809.999993" height="1080" preserveAspectRatio="xMidYMid meet" version="1.0"><path fill="#131313" d="M 625.976562 179.652344 C 631.234375 154.28125 636.488281 128.910156 653.667969 98.964844 C 670.847656 69.023438 699.949219 34.511719 727.808594 16.324219 C 745.136719 5.007812 761.984375 0.0117188 776.910156 0.0117188 C 785.976562 0.0117188 794.332031 1.855469 801.65625 5.25 C 821.035156 14.230469 833.171875 34.058594 826.140625 51.0625 C 819.109375 68.0625 792.90625 82.238281 784.410156 111.050781 C 775.917969 139.859375 785.132812 183.300781 794.347656 226.746094 L 697.707031 280.15625 Z M 625.976562 179.652344 " fill-opacity="1" fill-rule="nonzero"/><path fill="#fb8426" d="M 846.261719 766.75 C 823.691406 782.773438 801.125 798.800781 763.53125 805.796875 C 748.160156 808.65625 730.273438 810.007812 711.742188 810.007812 C 684.960938 810.007812 656.835938 807.1875 633 802.023438 C 592.671875 793.289062 564.632812 777.855469 536.59375 762.421875 C 523.359375 764.890625 510.128906 767.359375 495.222656 767.359375 C 482.664062 767.359375 468.914062 765.605469 452.980469 760.625 C 418.128906 749.734375 372.8125 723.402344 340.164062 678 C 307.515625 632.59375 287.539062 568.117188 286.265625 498.808594 C 284.992188 429.5 302.425781 355.359375 340.65625 295.816406 C 378.886719 236.273438 437.914062 191.328125 486.953125 172.367188 C 510.136719 163.40625 531.085938 160.25 549.359375 160.25 C 569.738281 160.25 586.789062 164.175781 599.886719 168.351562 C 624.722656 176.273438 635.351562 185.09375 645.980469 193.910156 C 665.902344 186.367188 685.824219 178.824219 704.589844 177.515625 C 706.675781 177.371094 708.746094 177.304688 710.804688 177.304688 C 727.269531 177.304688 742.925781 181.683594 758.578125 186.0625 C 763.058594 179.820312 767.539062 173.578125 792.421875 164.785156 C 808.125 159.238281 831.949219 152.675781 860.378906 152.675781 C 877.003906 152.675781 895.203125 154.921875 914.277344 160.925781 C 965.960938 177.199219 1024.042969 221.089844 1065.242188 294.902344 C 1106.441406 368.71875 1130.757812 472.457031 1118.261719 554.234375 C 1105.765625 636.011719 1056.457031 695.828125 1014.71875 730.179688 C 972.980469 764.527344 938.808594 773.414062 911.996094 775.265625 C 908.199219 775.527344 904.550781 775.648438 901.027344 775.648438 C 879.671875 775.648438 862.964844 771.199219 846.261719 766.75 Z M 846.261719 766.75 " fill-opacity="1" fill-rule="nonzero"/><path fill="#131313" d="M 596.003906 439.90625 C 592.238281 429.726562 588.472656 419.550781 580.207031 399.71875 C 573.335938 383.226562 563.355469 360.066406 546.957031 360.066406 C 543.632812 360.066406 540.046875 361.015625 536.167969 363.171875 C 513.152344 375.941406 479.886719 430.96875 469.984375 459.058594 C 460.082031 487.148438 473.542969 488.296875 502.238281 493.417969 C 522.628906 497.054688 550.707031 502.695312 571.769531 502.695312 C 580.351562 502.695312 587.769531 501.761719 593.027344 499.371094 C 611.195312 491.113281 603.601562 465.511719 596.003906 439.90625 Z M 596.003906 439.90625 " fill-opacity="1" fill-rule="nonzero"/><path fill="#131313" d="M 857.664062 371.875 C 857.664062 371.875 852.710938 379.09375 850.363281 382.785156 C 847.242188 387.695312 844.21875 392.667969 841.253906 397.675781 C 833.066406 411.519531 825.207031 425.59375 818.253906 440.101562 C 812.691406 451.699219 804.734375 465.339844 808.855469 477.523438 C 810.574219 482.609375 815.992188 485.902344 820.765625 488.359375 C 831.464844 493.863281 843.777344 495.894531 855.714844 497.398438 C 865.46875 498.625 875.761719 499.65625 885.957031 499.65625 C 901.203125 499.65625 916.234375 497.351562 928.941406 489.960938 C 933.835938 487.113281 938.40625 481.820312 938.863281 476.179688 C 939.828125 464.230469 933.957031 452.664062 930.277344 441.253906 C 924.550781 423.507812 917.015625 406.1875 907.441406 390.183594 C 902.097656 381.246094 896.53125 372.148438 888.972656 364.984375 C 885.261719 361.46875 879.371094 358.082031 874.183594 358.082031 C 872.46875 358.082031 870.832031 358.453125 869.378906 359.3125 C 865.796875 361.425781 863.070312 364.8125 860.503906 368.085938 C 859.53125 369.328125 857.664062 371.875 857.664062 371.875 Z M 857.664062 371.875 " fill-opacity="1" fill-rule="nonzero"/><path fill="#131313" d="M 712.410156 444.589844 C 696.484375 466.140625 680.554688 487.6875 674.394531 501.667969 C 668.234375 515.648438 671.84375 522.058594 688.257812 525.789062 C 696.53125 527.667969 708.058594 528.863281 718.847656 528.863281 C 729.464844 528.863281 739.371094 527.707031 744.761719 524.894531 C 755.625 519.222656 748.136719 506.84375 742.523438 496.648438 C 736.914062 486.457031 733.179688 478.453125 728.476562 470.140625 C 723.769531 461.832031 718.089844 453.210938 712.410156 444.589844 Z M 712.410156 444.589844 " fill-opacity="1" fill-rule="nonzero"/><path fill="#131313" d="M 486.089844 541.117188 L 593.5625 569.648438 C 594.460938 583.617188 595.363281 597.589844 605.652344 607.699219 C 613.585938 615.492188 627.101562 620.992188 637.316406 620.992188 C 640.351562 620.992188 643.09375 620.507812 645.3125 619.453125 C 654.996094 614.847656 654.691406 599.390625 654.382812 583.929688 C 676.914062 585.441406 699.441406 586.949219 718.597656 586.949219 C 719.316406 586.949219 720.03125 586.949219 720.738281 586.945312 C 740.34375 586.824219 756.179688 585.019531 772.015625 583.210938 C 774.925781 594.222656 777.835938 605.230469 787.609375 610.457031 C 792.074219 612.839844 797.96875 614.019531 803.800781 614.019531 C 810.738281 614.019531 817.582031 612.347656 821.808594 609.054688 C 829.589844 602.996094 828.503906 591.4375 827.421875 579.882812 C 860.507812 567.710938 893.59375 555.542969 911.761719 550.382812 C 920.589844 547.875 925.898438 547.023438 929.390625 547.023438 C 933.082031 547.023438 934.75 547.972656 936.414062 548.925781 C 933.394531 568.28125 930.378906 587.636719 916.035156 610.523438 C 901.691406 633.40625 876.023438 659.820312 834.390625 678.996094 C 798.238281 695.644531 750.050781 706.839844 706.226562 706.839844 C 699.578125 706.839844 693.03125 706.582031 686.640625 706.046875 C 638.132812 701.984375 598.71875 681.914062 559.300781 661.84375 C 533.699219 638.792969 508.101562 615.746094 495.898438 595.625 C 483.695312 575.503906 484.894531 558.308594 486.089844 541.117188 Z M 486.089844 541.117188 " fill-opacity="1" fill-rule="nonzero"/><path fill="#fb8426" d="M 621.898438 207.347656 C 611.785156 210.621094 599.378906 217.984375 584.675781 229.4375 C 568.824219 243.902344 557.839844 255.101562 551.730469 263.03125 C 547.941406 266.859375 535.863281 285.089844 515.496094 317.71875 C 511.449219 324.488281 506.839844 337.054688 501.660156 355.410156 C 502.847656 351.292969 506.566406 344.960938 512.808594 336.421875 C 536.144531 305.296875 553.628906 282.507812 565.265625 268.046875 C 586.886719 240.253906 606.140625 220.8125 623.035156 209.722656 Z M 621.898438 207.347656 " fill-opacity="1" fill-rule="nonzero"/><path fill="#fb8426" d="M 761.507812 212.097656 C 775.746094 213.132812 792.132812 227.601562 810.671875 255.5 C 830.179688 285.308594 842.144531 312.46875 846.5625 336.972656 C 849.125 329.132812 849.472656 314.734375 847.605469 293.777344 C 843.601562 273.363281 838.589844 259.371094 832.574219 251.796875 C 816.640625 231.820312 805.023438 220.507812 797.714844 217.851562 C 777.046875 206.734375 764.589844 205.019531 760.339844 212.707031 Z M 761.507812 212.097656 " fill-opacity="1" fill-rule="nonzero"/><path fill="#fb8426" d="M 480.570312 631.535156 C 487.90625 655.480469 501.351562 686.574219 520.90625 724.808594 C 528.210938 739.667969 537.066406 751.664062 547.472656 760.796875 C 541.253906 758.105469 529.953125 738.449219 513.5625 701.828125 C 503.3125 678.019531 495.714844 658.839844 490.769531 644.289062 C 489 640.039062 487.144531 631.160156 485.210938 617.660156 C 484.238281 618.050781 482.769531 623.335938 480.800781 633.511719 Z M 480.570312 631.535156 " fill-opacity="1" fill-rule="nonzero"/><path fill="#fb8426" d="M 850.308594 755.300781 C 849.636719 755.40625 855.945312 745.457031 869.234375 725.453125 L 911.511719 655.566406 C 912.625 654.558594 912.609375 656.917969 911.464844 662.640625 C 910.886719 665.621094 908.800781 672.277344 905.207031 682.601562 C 900.320312 696.636719 895.554688 707.082031 890.90625 713.933594 C 874.046875 738.789062 859.710938 753.179688 847.898438 757.109375 Z M 850.308594 755.300781 " fill-opacity="1" fill-rule="nonzero"/><path fill="#131313" d="M 621.898438 207.347656 C 611.785156 210.621094 599.378906 217.984375 584.675781 229.4375 C 568.824219 243.902344 557.839844 255.101562 551.730469 263.03125 C 547.941406 266.859375 535.863281 285.089844 515.496094 317.71875 C 511.449219 324.488281 506.839844 337.054688 501.660156 355.410156 C 502.847656 351.292969 506.566406 344.960938 512.808594 336.421875 C 536.144531 305.296875 553.628906 282.507812 565.265625 268.046875 C 586.886719 240.253906 606.140625 220.8125 623.035156 209.722656 Z M 621.898438 207.347656 " fill-opacity="0.192" fill-rule="nonzero"/><path fill="#131313" d="M 761.507812 212.097656 C 775.746094 213.132812 792.132812 227.601562 810.671875 255.5 C 830.179688 285.308594 842.144531 312.46875 846.5625 336.972656 C 849.125 329.132812 849.472656 314.734375 847.605469 293.777344 C 843.601562 273.363281 838.589844 259.371094 832.574219 251.796875 C 816.640625 231.820312 805.023438 220.507812 797.714844 217.851562 C 777.046875 206.734375 764.589844 205.019531 760.339844 212.707031 Z M 761.507812 212.097656 " fill-opacity="0.192" fill-rule="nonzero"/><path fill="#131313" d="M 480.570312 631.535156 C 487.90625 655.480469 501.351562 686.574219 520.90625 724.808594 C 528.210938 739.667969 537.066406 751.664062 547.472656 760.796875 C 541.253906 758.105469 529.953125 738.449219 513.5625 701.828125 C 503.3125 678.019531 495.714844 658.839844 490.769531 644.289062 C 489 640.039062 487.144531 631.160156 485.210938 617.660156 C 484.238281 618.050781 482.769531 623.335938 480.800781 633.511719 Z M 480.570312 631.535156 " fill-opacity="0.192" fill-rule="nonzero"/><path fill="#131313" d="M 850.308594 755.300781 C 849.636719 755.40625 855.945312 745.457031 869.234375 725.453125 L 911.511719 655.566406 C 912.625 654.558594 912.609375 656.917969 911.464844 662.640625 C 910.886719 665.621094 908.800781 672.277344 905.207031 682.601562 C 900.320312 696.636719 895.554688 707.082031 890.90625 713.933594 C 874.046875 738.789062 859.710938 753.179688 847.898438 757.109375 Z M 850.308594 755.300781 " fill-opacity="0.192" fill-rule="nonzero"/></svg>