<svg xmlns="http://www.w3.org/2000/svg" xmlns:xlink="http://www.w3.org/1999/xlink" width="400" zoomAndPan="magnify" viewBox="0 0 300 299.999988" height="400" preserveAspectRatio="xMidYMid meet" version="1.0"><defs><clipPath id="56c2ff7b0f"><path d="M 0 0 L 291 0 L 291 289.046875 L 0 289.046875 Z M 0 0 " clip-rule="nonzero"/></clipPath></defs><g clip-path="url(#56c2ff7b0f)"><path fill="#ffffff" d="M 282.574219 -18.621094 C 285.277344 -20.859375 287.90625 -23.140625 290.460938 -25.464844 L 288.8125 -27.277344 C 287.015625 -25.644531 284.929688 -23.808594 282.574219 -21.828125 L 282.574219 -22.332031 L 282.15625 -21.476562 C 272.265625 -13.234375 261.796875 -5.800781 250.753906 0.820312 C 246.191406 1.34375 241.386719 1.769531 236.707031 1.253906 C 231.363281 0.667969 226.792969 -1.128906 223.484375 -3.945312 C 219.859375 -7.035156 217.492188 -11.714844 217.15625 -16.472656 C 216.855469 -20.699219 218.152344 -25.097656 220.65625 -28.53125 C 221.605469 -28.914062 222.554688 -29.300781 223.503906 -29.691406 L 222.574219 -31.957031 C 221.796875 -31.640625 221.023438 -31.328125 220.246094 -31.015625 C 219.867188 -30.863281 219.492188 -30.714844 219.117188 -30.5625 C 188.421875 -18.265625 156.726562 -9.640625 124.035156 -4.691406 C 116.011719 -3.480469 107.960938 -2.5 99.890625 -1.75 C 65.269531 1.46875 30.765625 0.488281 -3.617188 -4.691406 L -5.546875 -4.988281 L -4.976562 -3.125 C 3.46875 24.511719 8.195312 52.742188 9.171875 81.230469 C 9.183594 81.566406 9.195312 81.902344 9.203125 82.238281 C 9.628906 95.863281 9.203125 109.460938 7.925781 123.03125 L 7.902344 123.085938 L 7.917969 123.085938 C 7.761719 124.769531 7.589844 126.449219 7.40625 128.132812 C 5.425781 146.3125 1.945312 164.203125 -3.035156 181.796875 C -3.285156 182.679688 -3.535156 183.554688 -3.796875 184.429688 C -10.230469 206.40625 -18.878906 227.472656 -29.742188 247.632812 L -27.582031 248.796875 C -23.21875 240.6875 -19.191406 232.375 -15.5 223.863281 L -14.902344 224.191406 C -11.527344 218.03125 -8.050781 211.691406 -3.445312 206.3125 C -3.171875 209.882812 -2.753906 213.445312 -2.1875 217.003906 C -0.378906 228.390625 2.882812 239.339844 7.597656 249.859375 L 9.835938 248.855469 C 6.644531 241.75 4.125 234.414062 2.277344 226.847656 C 0.425781 219.28125 -0.722656 211.613281 -1.167969 203.835938 C 4.914062 197.703125 12.351562 194.238281 19.285156 194.300781 C 23.660156 194.34375 28.246094 195.667969 33.722656 198.460938 C 36.933594 200.101562 39.988281 201.996094 42.890625 204.136719 C 45.792969 206.277344 48.503906 208.640625 51.019531 211.222656 C 53.535156 213.804688 55.828125 216.574219 57.890625 219.53125 C 59.957031 222.488281 61.769531 225.59375 63.328125 228.847656 C 64.167969 235.578125 64.917969 242.320312 65.574219 249.074219 L 65.574219 249.082031 C 65.796875 251.347656 66.007812 253.613281 66.207031 255.882812 C 67.183594 266.957031 67.917969 278.058594 68.40625 289.183594 L 70.855469 289.078125 C 70.269531 275.683594 69.328125 262.320312 68.03125 248.988281 C 68.316406 234.066406 70.636719 219.46875 74.984375 205.191406 C 77.054688 198.382812 79.9375 190.730469 85.613281 185.613281 C 90.148438 181.523438 96.390625 178.957031 105.261719 177.539062 C 123.003906 174.699219 141.460938 177.457031 157.605469 185.308594 C 158.597656 185.789062 159.582031 186.289062 160.554688 186.8125 L 160.640625 186.65625 C 160.757812 186.734375 160.875 186.808594 160.984375 186.882812 C 168.21875 191.65625 175.582031 196.222656 183.074219 200.578125 L 184.304688 198.460938 C 175.765625 193.496094 167.386719 188.246094 159.179688 182.71875 C 157.121094 177.710938 155.445312 172.578125 154.15625 167.324219 C 150.828125 153.722656 150.464844 138.890625 153.105469 124.425781 C 156.992188 103.140625 166.1875 83.394531 178.984375 68.816406 C 182.582031 64.71875 186.402344 60.640625 190.085938 56.691406 C 198.796875 47.378906 207.75 37.800781 214.878906 26.929688 L 212.867188 40.601562 C 212.128906 45.605469 211.898438 50.703125 215.171875 54.078125 C 217.566406 56.546875 221.5 57.464844 225.4375 56.46875 C 228.816406 55.609375 231.714844 53.582031 234.347656 51.515625 C 244.941406 43.195312 253.800781 33.332031 262.253906 20.46875 C 268.84375 10.4375 274.539062 -0.515625 280.144531 -11.839844 C 280.253906 7.226562 280.644531 72.179688 280.664062 75.371094 L 283.117188 75.359375 C 283.117188 74.445312 282.570312 -15.820312 282.570312 -17.046875 Z M -10.539062 211.796875 C -9.019531 207.886719 -7.578125 203.953125 -6.210938 199.996094 C -5.367188 197.550781 -4.554688 195.097656 -3.769531 192.636719 C -3.867188 196.046875 -3.832031 199.464844 -3.660156 202.886719 C -6.261719 205.636719 -8.5 208.652344 -10.539062 211.796875 Z M 213.960938 -25.910156 C 214.929688 -26.277344 215.898438 -26.652344 216.863281 -27.03125 C 216.347656 -26.007812 215.917969 -24.949219 215.578125 -23.855469 C 215.238281 -22.761719 214.992188 -21.644531 214.835938 -20.507812 C 214.683594 -19.375 214.625 -18.234375 214.660156 -17.085938 C 214.699219 -15.941406 214.828125 -14.808594 215.054688 -13.683594 C 215.28125 -12.558594 215.597656 -11.460938 216.007812 -10.390625 C 216.417969 -9.320312 216.914062 -8.292969 217.496094 -7.304688 C 218.078125 -6.316406 218.738281 -5.386719 219.472656 -4.507812 C 220.210938 -3.628906 221.015625 -2.820312 221.890625 -2.078125 C 225.570312 1.0625 230.597656 3.058594 236.433594 3.691406 C 238.023438 3.859375 239.617188 3.945312 241.214844 3.9375 C 242.722656 3.9375 244.222656 3.871094 245.710938 3.765625 C 236.027344 9.292969 226.015625 14.148438 215.675781 18.332031 C 210.207031 18.425781 205.65625 17.386719 202.148438 15.261719 C 197.792969 12.617188 195.136719 8.101562 195.371094 3.75 C 195.507812 1.246094 196.507812 -1.136719 197.960938 -3.949219 C 202.179688 -12.078125 207.511719 -19.398438 213.960938 -25.90625 Z M 193.429688 -18.632812 C 198.574219 -20.308594 203.6875 -22.085938 208.769531 -23.957031 C 203.65625 -18.203125 199.328125 -11.910156 195.785156 -5.078125 C 194.398438 -2.402344 193.085938 0.503906 192.917969 3.617188 C 192.636719 8.855469 195.757812 14.25 200.871094 17.355469 C 203.496094 18.949219 206.609375 19.996094 210.171875 20.476562 C 201.949219 23.574219 193.582031 26.203125 185.066406 28.363281 C 184.199219 28.585938 183.324219 28.800781 182.445312 29.011719 C 182.101562 28.957031 181.75 28.890625 181.386719 28.816406 C 177.890625 28.085938 173.546875 26.53125 170.195312 23.21875 C 166.710938 19.777344 165.089844 14.84375 166.066406 10.65625 C 166.703125 7.90625 168.390625 5.414062 170.121094 3.128906 C 176.789062 -5.679688 184.847656 -13.199219 193.429688 -18.625 Z M 185.691406 -16.1875 C 179.289062 -11.226562 173.320312 -5.164062 168.164062 1.644531 C 166.269531 4.144531 164.417969 6.898438 163.675781 10.09375 C 162.511719 15.09375 164.390625 20.929688 168.46875 24.957031 C 171.101562 27.5625 174.242188 29.195312 177.210938 30.207031 C 168.34375 32.128906 159.394531 33.523438 150.363281 34.386719 L 149.828125 34.4375 C 147.96875 34.613281 146.089844 34.761719 144.199219 34.894531 C 140.238281 33.246094 135.382812 30.851562 131.796875 26.949219 C 128.148438 22.980469 126.476562 17.789062 127.4375 13.402344 C 128.496094 8.566406 132.417969 4.828125 136.117188 1.808594 C 139.855469 -1.242188 143.796875 -4.011719 147.933594 -6.5 C 160.652344 -9.15625 173.238281 -12.382812 185.691406 -16.1875 Z M 129.78125 136.15625 C 131.496094 147.792969 135.015625 158.847656 140.34375 169.332031 C 137.09375 166.898438 133.878906 164.425781 130.691406 161.910156 C 120.875 138.164062 118.316406 111.175781 123.308594 85.917969 C 126.664062 86.929688 130.042969 87.871094 133.449219 88.742188 C 132.976562 90.234375 132.539062 91.726562 132.136719 93.222656 C 128.472656 106.914062 127.660156 121.761719 129.78125 136.15625 Z M 47.480469 128.035156 L 47.703125 133.636719 C 45.972656 126.910156 44.144531 120.210938 42.222656 113.535156 C 41.15625 109.820312 40.054688 106.109375 38.929688 102.40625 L 38.929688 102.398438 L 38.691406 93.433594 C 38.632812 91.214844 38.574219 88.917969 39.019531 86.769531 C 39.488281 84.511719 40.523438 82.648438 41.933594 81.527344 C 43.488281 80.292969 45.621094 79.988281 47.128906 80.78125 L 47.199219 80.648438 C 50.757812 85.289062 54.40625 89.871094 58.144531 94.390625 L 58.160156 94.429688 L 58.175781 94.429688 C 61.839844 98.855469 65.589844 103.226562 69.429688 107.542969 C 68.140625 106.964844 66.808594 106.511719 65.433594 106.175781 C 61.175781 105.164062 56.980469 105.753906 53.917969 107.792969 C 51.007812 109.738281 48.898438 113.097656 47.988281 117.257812 C 47.199219 120.851562 47.34375 124.503906 47.484375 128.035156 Z M 11.609375 81.867188 C 13.347656 78.636719 15.769531 76.277344 18.527344 75.160156 C 21.929688 73.777344 26.011719 74.570312 28.09375 77.003906 C 31.046875 85.554688 33.84375 94.148438 36.480469 102.78125 L 36.542969 105.109375 C 35.46875 104.367188 34.320312 103.777344 33.097656 103.332031 C 31.398438 102.730469 29.652344 102.4375 27.851562 102.445312 C 26.050781 102.453125 24.304688 102.765625 22.613281 103.382812 C 17.929688 105.121094 14.789062 108.890625 12.980469 111.742188 C 12.253906 112.902344 11.597656 114.097656 11.011719 115.335938 C 11.777344 104.191406 11.976562 93.035156 11.609375 81.867188 Z M 108.984375 67.707031 C 107.53125 70.765625 106.378906 73.933594 105.523438 77.210938 C 100.503906 75.25 95.539062 73.125 90.636719 70.839844 C 94.089844 66.242188 98.277344 61.828125 103.203125 57.601562 C 112.378906 49.746094 122.925781 43.53125 132.9375 37.839844 L 133.273438 37.832031 C 121.921875 47.433594 113.960938 57.234375 108.984375 67.707031 Z M 137.261719 37.71875 C 139.4375 37.640625 141.617188 37.527344 143.789062 37.378906 L 143.8125 37.378906 C 144.527344 37.332031 145.246094 37.28125 145.957031 37.226562 C 141.316406 40.945312 137.175781 45.679688 133.597656 51.351562 C 129.660156 57.605469 126.386719 65.054688 123.859375 73.480469 C 122.9375 76.554688 122.128906 79.660156 121.4375 82.792969 C 116.859375 81.359375 112.324219 79.792969 107.835938 78.09375 C 108.648438 74.871094 109.769531 71.757812 111.195312 68.753906 C 116.367188 57.886719 124.890625 47.730469 137.261719 37.71875 Z M 104.8125 105.8125 C 106.941406 118.578125 111.585938 131.21875 116.078125 143.445312 C 117.25 146.625 118.378906 149.703125 119.445312 152.722656 C 106.214844 141.570312 93.636719 129.722656 81.710938 117.183594 C 78.074219 107.71875 78.265625 96.425781 82.316406 85.734375 C 83.992188 81.320312 86.277344 77.027344 89.175781 72.859375 C 94.355469 75.28125 99.617188 77.53125 104.957031 79.601562 C 103.257812 87.546875 103.214844 96.21875 104.8125 105.8125 Z M 77.882812 113.109375 C 71.832031 106.597656 65.964844 99.914062 60.289062 93.058594 C 56.730469 81.804688 57.453125 69.238281 62.308594 58.480469 C 62.339844 58.410156 62.371094 58.34375 62.402344 58.273438 C 65.800781 60.402344 69.25 62.453125 72.746094 64.417969 C 77.390625 67.023438 82.121094 69.484375 86.933594 71.792969 C 84.03125 76.015625 81.726562 80.371094 80.023438 84.859375 C 76.441406 94.3125 75.738281 104.234375 77.882812 113.109375 Z M 56.597656 88.546875 C 49.40625 79.648438 42.550781 70.503906 36.03125 61.105469 C 34.824219 54.117188 34.941406 48.71875 36.402344 44.136719 C 36.777344 42.964844 37.25 41.828125 37.816406 40.734375 C 45.015625 46.554688 52.515625 51.957031 60.3125 56.949219 C 60.230469 57.125 60.148438 57.296875 60.078125 57.46875 C 55.714844 67.125 54.523438 78.164062 56.597656 88.546875 Z M 101.609375 55.742188 C 96.40625 60.195312 91.996094 64.871094 88.375 69.769531 C 83.5 67.433594 78.691406 64.933594 73.949219 62.273438 C 70.402344 60.285156 66.914062 58.210938 63.484375 56.0625 C 68.496094 46.460938 76.804688 38.597656 86.691406 34.167969 C 100.324219 36.625 114.066406 37.863281 127.917969 37.886719 C 118.96875 43.050781 109.785156 48.738281 101.609375 55.742188 Z M 61.40625 54.742188 C 53.65625 49.78125 46.207031 44.40625 39.054688 38.617188 C 41.007812 35.652344 43.523438 33.28125 46.597656 31.503906 C 51.320312 28.796875 58.316406 27.710938 63.714844 28.839844 C 69.992188 30.625 76.3125 32.148438 82.667969 33.402344 C 78.144531 35.828125 74.070312 38.855469 70.449219 42.492188 C 66.824219 46.125 63.8125 50.210938 61.40625 54.742188 Z M 45.378906 29.375 C 42.042969 31.304688 39.300781 33.867188 37.148438 37.058594 C 24.351562 26.476562 12.726562 14.734375 2.28125 1.824219 C 15.898438 10.203125 30.195312 17.179688 45.179688 22.757812 C 48.488281 23.988281 51.808594 25.148438 55.148438 26.230469 L 55.15625 26.230469 C 51.613281 26.710938 48.140625 27.789062 45.378906 29.375 Z M 25.179688 29.8125 C 28.65625 33.027344 32.222656 36.136719 35.875 39.148438 C 35.136719 40.503906 34.535156 41.917969 34.0625 43.386719 C 32.632812 47.878906 32.574219 52.566406 32.945312 56.597656 C 22.382812 41 12.824219 24.8125 4.257812 8.035156 C 10.800781 15.707031 17.769531 22.96875 25.175781 29.8125 Z M 31.417969 58.792969 C 30.582031 59.3125 29.960938 60.03125 29.511719 60.605469 C 28.285156 62.179688 27.359375 63.910156 26.734375 65.800781 C 21.832031 52.257812 16.546875 38.859375 10.878906 25.601562 C 17.242188 36.933594 24.089844 47.996094 31.417969 58.792969 Z M 36.230469 93.496094 L 36.238281 93.777344 C 33.734375 85.898438 31.097656 78.058594 28.328125 70.25 C 28.546875 67.226562 29.585938 64.519531 31.445312 62.128906 C 31.773438 61.707031 32.21875 61.1875 32.738281 60.871094 L 32.804688 60.832031 C 36.765625 66.605469 40.863281 72.292969 45.089844 77.902344 C 43.335938 77.949219 41.769531 78.523438 40.398438 79.621094 C 38.015625 81.515625 37.023438 84.289062 36.609375 86.28125 C 36.101562 88.695312 36.175781 91.132812 36.230469 93.496094 Z M 50.382812 117.78125 C 51.160156 114.25 52.898438 111.425781 55.277344 109.832031 C 57.773438 108.167969 61.269531 107.703125 64.867188 108.5625 C 68.269531 109.371094 71.4375 111.203125 74.351562 113.0625 L 74.382812 113.011719 L 74.484375 113.128906 C 76.195312 114.988281 77.917969 116.832031 79.65625 118.660156 C 80.238281 119.277344 80.824219 119.890625 81.410156 120.496094 C 93.90625 133.523438 107.109375 145.792969 121.015625 157.300781 C 121.375 157.597656 121.738281 157.894531 122.097656 158.191406 C 122.78125 158.753906 123.464844 159.3125 124.152344 159.871094 C 123.289062 159.363281 122.425781 158.863281 121.5625 158.367188 C 121.488281 158.320312 121.410156 158.277344 121.328125 158.234375 C 114.996094 154.625 108.421875 151.300781 101.394531 149.074219 C 95.636719 147.257812 90.480469 146.472656 85.625 146.683594 C 81.722656 146.855469 76.117188 147.8125 71.574219 151.4375 C 68.015625 154.273438 65.328125 158.617188 63.804688 164 C 62.46875 168.710938 62.128906 173.609375 61.804688 178.34375 L 60.699219 194.289062 C 57.882812 177.859375 54.527344 161.542969 50.628906 145.347656 L 49.9375 127.941406 C 49.800781 124.5625 49.660156 121.070312 50.382812 117.78125 Z M 123.09375 155.765625 C 121.648438 151.488281 120.054688 147.152344 118.382812 142.601562 C 111.144531 122.90625 103.101562 101.011719 107.296875 80.496094 C 111.800781 82.191406 116.347656 83.753906 120.941406 85.191406 C 118.636719 96.671875 117.851562 108.257812 118.589844 119.945312 C 119.410156 133.417969 122.1875 146.464844 126.839844 158.828125 C 125.585938 157.8125 124.335938 156.792969 123.09375 155.765625 Z M 123.804688 83.523438 C 124.488281 80.382812 125.292969 77.269531 126.214844 74.191406 C 131.464844 56.671875 139.6875 44.105469 150.660156 36.824219 C 158.605469 36.066406 166.488281 34.90625 174.308594 33.339844 C 169.683594 36.578125 165.339844 40.160156 161.277344 44.082031 C 157.210938 48 153.480469 52.214844 150.074219 56.722656 C 146.671875 61.226562 143.640625 65.972656 140.980469 70.953125 C 138.320312 75.933594 136.066406 81.089844 134.214844 86.425781 C 130.722656 85.53125 127.253906 84.566406 123.804688 83.523438 Z M 117.222656 -1.242188 C 119.617188 -1.5625 122.011719 -1.902344 124.402344 -2.265625 C 130.066406 -3.121094 135.71875 -4.089844 141.351562 -5.175781 C 139.019531 -3.570312 136.75 -1.871094 134.566406 -0.0898438 C 130.539062 3.199219 126.261719 7.308594 125.042969 12.882812 C 123.898438 18.113281 125.75 23.996094 129.996094 28.613281 C 132.644531 31.496094 135.871094 33.59375 138.984375 35.195312 C 137.140625 35.277344 135.285156 35.339844 133.414062 35.382812 C 132.296875 35.40625 131.1875 35.421875 130.082031 35.429688 C 129.800781 35.3125 129.519531 35.195312 129.246094 35.066406 C 126.132812 33.65625 123.222656 31.917969 120.507812 29.84375 C 117.796875 27.773438 115.351562 25.421875 113.171875 22.792969 C 108.996094 17.746094 104.671875 11.277344 108.328125 6.003906 C 110.253906 3.230469 113.300781 1.277344 116.246094 -0.613281 C 116.574219 -0.828125 116.898438 -1.035156 117.222656 -1.246094 Z M 100.628906 0.648438 L 100.636719 0.648438 C 104.324219 0.300781 108.011719 -0.09375 111.695312 -0.539062 C 109.664062 0.898438 107.757812 2.519531 106.308594 4.605469 C 104.1875 7.667969 103.929688 11.308594 105.554688 15.417969 C 106.917969 18.859375 109.332031 22.007812 111.277344 24.363281 C 115 28.855469 119.402344 32.535156 124.480469 35.40625 C 116.597656 35.269531 108.742188 34.730469 100.914062 33.789062 C 99.566406 33.167969 98.179688 32.609375 96.832031 32.0625 C 93.089844 30.550781 89.558594 29.121094 86.699219 26.523438 C 85.128906 25.085938 80.167969 19.957031 82.382812 14.09375 C 83.519531 11.09375 86.257812 8.40625 90.761719 5.882812 C 92.359375 4.988281 94.023438 4.132812 95.632812 3.304688 C 97.277344 2.457031 98.972656 1.578125 100.632812 0.648438 Z M 94.367188 1.195312 C 92.78125 2.011719 91.148438 2.855469 89.558594 3.746094 C 84.53125 6.5625 81.4375 9.664062 80.085938 13.230469 C 78.222656 18.160156 80.074219 23.808594 85.042969 28.339844 C 86.992188 30.113281 89.214844 31.398438 91.511719 32.46875 C 89.832031 32.199219 88.171875 31.914062 86.523438 31.609375 L 86.507812 31.570312 L 86.453125 31.59375 C 73.417969 29.1875 60.671875 25.722656 48.214844 21.199219 C 47.28125 19.6875 46.613281 18.070312 46.203125 16.34375 C 45.792969 14.617188 45.664062 12.867188 45.816406 11.101562 C 46.125 7.621094 47.257812 4.921875 49.464844 2.414062 C 64.457031 2.789062 79.421875 2.382812 94.371094 1.191406 Z M 38.835938 2.019531 C 41.359375 2.144531 43.878906 2.25 46.402344 2.328125 C 44.636719 4.824219 43.65625 7.597656 43.363281 10.886719 C 43.089844 14.023438 43.570312 17.042969 44.796875 19.941406 C 41.457031 18.675781 38.234375 17.375 35.132812 16.042969 C 33.824219 13.378906 33.539062 11.070312 34.203125 8.601562 C 34.566406 7.265625 35.148438 6.035156 35.945312 4.902344 C 36.742188 3.769531 37.707031 2.808594 38.839844 2.011719 Z M 35.304688 1.832031 C 33.628906 3.582031 32.472656 5.625 31.832031 7.960938 C 31.210938 10.203125 31.25 12.433594 31.949219 14.652344 C 21.46875 9.996094 11.371094 4.628906 1.648438 -1.457031 C 12.847656 0.078125 24.070312 1.171875 35.3125 1.824219 Z M 9.082031 50.53125 C 7.3125 36.808594 4.695312 23.25 1.230469 9.851562 C 10.304688 29.707031 18.53125 50.011719 25.851562 70.597656 C 25.851562 70.621094 25.851562 70.648438 25.851562 70.671875 L 25.882812 70.671875 C 26.15625 71.441406 26.429688 72.214844 26.707031 72.992188 C 23.992188 71.761719 20.628906 71.65625 17.613281 72.878906 C 15.296875 73.820312 13.195312 75.46875 11.453125 77.660156 C 11.035156 68.597656 10.242188 59.554688 9.082031 50.53125 Z M 9.84375 128.40625 C 10.019531 126.800781 10.183594 125.191406 10.335938 123.578125 C 11.640625 119.984375 13.003906 116.28125 15.050781 113.054688 C 16.65625 110.519531 19.421875 107.179688 23.464844 105.679688 C 24.167969 105.417969 24.886719 105.222656 25.625 105.085938 C 26.363281 104.953125 27.105469 104.882812 27.855469 104.878906 C 28.605469 104.875 29.351562 104.9375 30.089844 105.0625 C 30.828125 105.1875 31.550781 105.378906 32.257812 105.632812 C 32.960938 105.886719 33.640625 106.199219 34.292969 106.570312 C 34.941406 106.945312 35.554688 107.371094 36.132812 107.851562 C 36.707031 108.332031 37.238281 108.859375 37.722656 109.429688 C 38.203125 110.003906 38.632812 110.613281 39.011719 111.261719 C 39.296875 112.246094 39.582031 113.226562 39.867188 114.210938 C 42.867188 124.636719 45.636719 135.125 48.179688 145.679688 L 48.199219 146.179688 L 48.300781 146.179688 C 48.855469 148.480469 49.398438 150.789062 49.929688 153.101562 C 49.015625 152.3125 48.050781 151.597656 47.027344 150.953125 C 46.007812 150.3125 44.945312 149.75 43.839844 149.269531 C 42.734375 148.785156 41.597656 148.390625 40.433594 148.082031 C 39.265625 147.769531 38.085938 147.550781 36.886719 147.417969 C 35.6875 147.289062 34.484375 147.246094 33.277344 147.296875 C 32.074219 147.347656 30.878906 147.488281 29.695312 147.71875 C 28.511719 147.949219 27.351562 148.269531 26.214844 148.675781 C 25.082031 149.082031 23.980469 149.570312 22.921875 150.140625 C 16.132812 153.789062 11.644531 160.351562 7.683594 166.144531 L 1.125 175.722656 C 5.1875 160.164062 8.09375 144.390625 9.84375 128.40625 Z M 53.535156 210.335938 C 48.117188 204.566406 41.882812 199.878906 34.839844 196.273438 C 29.089844 193.34375 24.007812 191.894531 19.3125 191.847656 C 15.222656 191.804688 11.085938 192.8125 7.011719 194.839844 C 4.117188 196.273438 1.28125 198.238281 -1.3125 200.585938 C -1.5 194.707031 -1.285156 188.839844 -0.660156 182.992188 L -0.851562 182.972656 C -0.851562 182.964844 -0.847656 182.957031 -0.847656 182.949219 L 9.707031 167.53125 C 13.507812 161.972656 17.824219 155.671875 24.082031 152.304688 C 25.175781 151.71875 26.3125 151.226562 27.488281 150.835938 C 28.664062 150.445312 29.867188 150.15625 31.09375 149.972656 C 32.320312 149.789062 33.554688 149.714844 34.792969 149.742188 C 36.035156 149.773438 37.261719 149.90625 38.480469 150.148438 C 39.695312 150.390625 40.882812 150.734375 42.039062 151.179688 C 43.199219 151.628906 44.308594 152.171875 45.371094 152.808594 C 46.433594 153.449219 47.4375 154.171875 48.375 154.984375 C 49.3125 155.796875 50.175781 156.679688 50.960938 157.640625 C 54.460938 173.285156 57.457031 189.046875 59.949219 204.921875 C 59.96875 205.019531 59.984375 205.117188 59.996094 205.214844 C 60.878906 210.816406 61.695312 216.429688 62.445312 222.046875 C 59.894531 217.824219 56.921875 213.921875 53.535156 210.335938 Z M 104.875 175.113281 C 95.515625 176.609375 88.871094 179.367188 83.96875 183.789062 C 77.847656 189.3125 74.808594 197.34375 72.636719 204.472656 C 69.640625 214.3125 67.589844 224.34375 66.488281 234.570312 C 66.316406 233.0625 66.136719 231.558594 65.949219 230.054688 C 65.871094 229.421875 65.792969 228.789062 65.714844 228.15625 C 64.738281 220.355469 63.640625 212.574219 62.417969 204.816406 L 64.242188 178.511719 C 64.5625 173.898438 64.890625 169.136719 66.160156 164.667969 C 67.125 161.253906 69.113281 156.53125 73.101562 153.351562 C 77.128906 150.140625 82.191406 149.285156 85.730469 149.132812 C 90.292969 148.9375 95.175781 149.679688 100.652344 151.414062 C 110.59375 154.558594 127.394531 164.09375 136.222656 169.394531 L 136.085938 169.242188 C 138.433594 171.023438 140.796875 172.785156 143.175781 174.519531 C 143.878906 175.03125 144.585938 175.542969 145.292969 176.046875 C 146.882812 177.195312 148.480469 178.335938 150.085938 179.460938 C 135.699219 174.238281 120.035156 172.691406 104.875 175.113281 Z M 150.695312 123.980469 C 147.988281 138.78125 148.363281 153.96875 151.777344 167.902344 C 152.804688 172.101562 154.078125 176.222656 155.589844 180.273438 C 152.023438 177.828125 148.496094 175.328125 144.996094 172.773438 C 131.4375 149.304688 127.5 120.03125 134.5 93.855469 C 134.90625 92.339844 135.347656 90.835938 135.824219 89.339844 C 143.824219 91.308594 151.925781 92.894531 160.046875 94.070312 C 155.699219 103.65625 152.582031 113.625 150.695312 123.980469 Z M 188.296875 55.015625 C 184.59375 58.972656 180.761719 63.066406 177.140625 67.191406 C 170.941406 74.253906 165.5625 82.507812 161.132812 91.746094 C 152.84375 90.570312 144.667969 88.992188 136.601562 87.023438 C 144.457031 64.378906 160.53125 44.386719 180.976562 31.902344 C 184.75 31.03125 188.503906 30.070312 192.238281 29.011719 C 200.167969 26.765625 207.964844 24.113281 215.621094 21.0625 C 208.273438 33.65625 198.125 44.503906 188.296875 55.015625 Z M 232.828125 49.582031 C 230.414062 51.480469 227.769531 53.339844 224.832031 54.085938 C 221.792969 54.859375 218.691406 54.183594 216.933594 52.367188 C 214.277344 49.625 214.695312 45.039062 215.296875 40.949219 L 218.136719 21.625 L 218.316406 20.390625 L 218.382812 19.941406 C 225.289062 17.09375 232.085938 13.925781 238.773438 10.4375 C 243.148438 8.148438 247.464844 5.726562 251.726562 3.167969 L 251.824219 3.15625 L 251.824219 3.117188 C 261.492188 -2.683594 270.730469 -9.105469 279.539062 -16.144531 C 266.277344 10.785156 254.234375 32.769531 232.832031 49.582031 Z M 232.828125 49.582031 " fill-opacity="1" fill-rule="nonzero"/></g><path fill="#ffffff" d="M 241.050781 149.871094 C 240.777344 149.851562 240.550781 149.738281 240.367188 149.535156 C 240.183594 149.332031 240.09375 149.097656 240.097656 148.824219 C 240.144531 146.703125 241.675781 144.695312 243.824219 143.925781 C 245.652344 143.269531 247.820312 143.480469 249.769531 144.503906 C 251.289062 145.296875 252.675781 146.550781 254.007812 148.328125 C 254.101562 148.4375 254.167969 148.558594 254.207031 148.695312 C 254.25 148.832031 254.261719 148.96875 254.246094 149.113281 C 254.230469 149.253906 254.1875 149.382812 254.117188 149.507812 C 254.046875 149.632812 253.953125 149.734375 253.839844 149.820312 C 253.726562 149.90625 253.601562 149.964844 253.464844 150 C 253.324219 150.03125 253.1875 150.035156 253.046875 150.011719 C 252.90625 149.988281 252.777344 149.9375 252.65625 149.859375 C 252.539062 149.785156 252.441406 149.6875 252.359375 149.566406 C 251.214844 148.039062 250.054688 146.976562 248.816406 146.332031 C 247.375 145.578125 245.808594 145.410156 244.523438 145.871094 C 243.183594 146.347656 242.191406 147.609375 242.167969 148.867188 C 242.164062 149.003906 242.136719 149.132812 242.082031 149.257812 C 242.027344 149.386719 241.949219 149.496094 241.851562 149.589844 C 241.753906 149.683594 241.640625 149.757812 241.511719 149.808594 C 241.382812 149.855469 241.253906 149.878906 241.113281 149.878906 Z M 241.050781 149.871094 " fill-opacity="1" fill-rule="nonzero"/><path fill="#ffffff" d="M 252.4375 157.234375 C 252.007812 157.199219 251.714844 156.980469 251.554688 156.578125 C 250.859375 154.800781 250.027344 153.472656 249.003906 152.515625 C 247.816406 151.402344 246.351562 150.824219 244.988281 150.921875 C 243.570312 151.027344 242.28125 151.980469 241.917969 153.179688 C 241.828125 153.445312 241.660156 153.640625 241.414062 153.769531 C 241.167969 153.894531 240.910156 153.917969 240.644531 153.839844 C 240.378906 153.761719 240.175781 153.601562 240.039062 153.359375 C 239.902344 153.117188 239.871094 152.863281 239.9375 152.59375 C 240.546875 150.566406 242.558594 149.035156 244.835938 148.867188 C 246.773438 148.726562 248.804688 149.507812 250.414062 151.011719 C 251.664062 152.191406 252.664062 153.761719 253.472656 155.832031 C 253.539062 155.996094 253.558594 156.167969 253.535156 156.34375 C 253.511719 156.519531 253.449219 156.679688 253.339844 156.820312 C 253.234375 156.964844 253.101562 157.074219 252.941406 157.144531 C 252.777344 157.21875 252.609375 157.25 252.433594 157.238281 Z M 252.4375 157.234375 " fill-opacity="1" fill-rule="nonzero"/><path fill="#ffffff" d="M 251.132812 167.703125 C 250.867188 167.679688 250.648438 167.574219 250.464844 167.382812 C 250.285156 167.191406 250.1875 166.964844 250.183594 166.699219 C 250.132812 164.789062 249.800781 163.257812 249.164062 162.011719 C 248.425781 160.558594 247.246094 159.515625 245.933594 159.144531 C 244.5625 158.761719 243.023438 159.214844 242.277344 160.226562 C 242.195312 160.339844 242.097656 160.429688 241.980469 160.503906 C 241.859375 160.578125 241.734375 160.625 241.597656 160.648438 C 241.460938 160.667969 241.324219 160.664062 241.1875 160.628906 C 241.054688 160.597656 240.929688 160.539062 240.820312 160.457031 C 240.707031 160.375 240.617188 160.273438 240.546875 160.152344 C 240.476562 160.035156 240.429688 159.90625 240.410156 159.769531 C 240.390625 159.632812 240.402344 159.496094 240.4375 159.363281 C 240.472656 159.226562 240.53125 159.105469 240.617188 158.996094 C 241.875 157.296875 244.289062 156.542969 246.488281 157.160156 C 248.359375 157.683594 250.003906 159.113281 251.003906 161.078125 C 251.78125 162.605469 252.1875 164.425781 252.246094 166.648438 C 252.25 166.785156 252.226562 166.917969 252.175781 167.046875 C 252.128906 167.171875 252.054688 167.285156 251.960938 167.386719 C 251.867188 167.484375 251.757812 167.5625 251.632812 167.617188 C 251.507812 167.675781 251.375 167.703125 251.238281 167.707031 C 251.203125 167.707031 251.167969 167.707031 251.132812 167.703125 Z M 251.132812 167.703125 " fill-opacity="1" fill-rule="nonzero"/><path fill="#ffffff" d="M 233.746094 149.300781 L 233.6875 149.296875 C 233.550781 149.277344 233.425781 149.234375 233.304688 149.164062 C 233.1875 149.097656 233.085938 149.007812 233.003906 148.898438 C 232.921875 148.789062 232.863281 148.667969 232.828125 148.535156 C 232.792969 148.402344 232.785156 148.269531 232.804688 148.132812 C 232.972656 146.890625 232.191406 145.488281 230.941406 144.808594 C 229.742188 144.15625 228.167969 144.078125 226.625 144.601562 C 225.300781 145.050781 223.992188 145.914062 222.625 147.246094 C 222.417969 147.4375 222.175781 147.53125 221.894531 147.527344 C 221.613281 147.519531 221.375 147.417969 221.175781 147.214844 C 220.980469 147.011719 220.882812 146.769531 220.882812 146.488281 C 220.886719 146.207031 220.984375 145.964844 221.183594 145.765625 C 222.777344 144.214844 224.34375 143.195312 225.964844 142.644531 C 228.054688 141.9375 230.226562 142.066406 231.933594 143 C 233.933594 144.09375 235.136719 146.320312 234.851562 148.414062 C 234.8125 148.683594 234.6875 148.90625 234.476562 149.078125 C 234.261719 149.25 234.019531 149.324219 233.746094 149.300781 Z M 233.746094 149.300781 " fill-opacity="1" fill-rule="nonzero"/><path fill="#ffffff" d="M 221.355469 154.804688 C 221.175781 154.792969 221.015625 154.734375 220.867188 154.636719 C 220.71875 154.539062 220.601562 154.414062 220.519531 154.253906 C 220.4375 154.097656 220.398438 153.929688 220.402344 153.753906 C 220.40625 153.574219 220.453125 153.410156 220.542969 153.253906 C 221.667969 151.335938 222.898438 149.933594 224.320312 148.972656 C 226.140625 147.734375 228.269531 147.277344 230.160156 147.714844 C 232.386719 148.234375 234.136719 150.0625 234.421875 152.15625 C 234.449219 152.433594 234.375 152.679688 234.203125 152.898438 C 234.03125 153.117188 233.808594 153.246094 233.53125 153.28125 C 233.257812 153.320312 233.007812 153.257812 232.78125 153.09375 C 232.558594 152.925781 232.421875 152.707031 232.375 152.433594 C 232.207031 151.1875 231.082031 150.050781 229.691406 149.726562 C 228.363281 149.417969 226.824219 149.761719 225.480469 150.679688 C 224.320312 151.464844 223.289062 152.648438 222.328125 154.296875 C 222.109375 154.667969 221.785156 154.839844 221.355469 154.804688 Z M 221.355469 154.804688 " fill-opacity="1" fill-rule="nonzero"/><path fill="#ffffff" d="M 221.019531 165.351562 C 220.984375 165.347656 220.949219 165.34375 220.910156 165.335938 C 220.777344 165.3125 220.652344 165.261719 220.539062 165.1875 C 220.425781 165.113281 220.328125 165.019531 220.25 164.90625 C 220.175781 164.792969 220.121094 164.667969 220.09375 164.535156 C 220.066406 164.402344 220.0625 164.269531 220.089844 164.132812 C 220.488281 161.945312 221.171875 160.210938 222.179688 158.820312 C 223.472656 157.039062 225.316406 155.878906 227.246094 155.65625 C 229.511719 155.386719 231.78125 156.507812 232.761719 158.378906 C 232.828125 158.503906 232.867188 158.632812 232.878906 158.769531 C 232.894531 158.90625 232.882812 159.042969 232.839844 159.171875 C 232.800781 159.304688 232.734375 159.425781 232.648438 159.53125 C 232.558594 159.636719 232.453125 159.722656 232.332031 159.785156 C 232.210938 159.851562 232.078125 159.886719 231.941406 159.898438 C 231.804688 159.910156 231.667969 159.898438 231.539062 159.855469 C 231.40625 159.8125 231.289062 159.746094 231.183594 159.65625 C 231.078125 159.566406 230.996094 159.460938 230.933594 159.335938 C 230.34375 158.222656 228.902344 157.535156 227.488281 157.703125 C 226.132812 157.863281 224.804688 158.714844 223.847656 160.035156 C 223.023438 161.167969 222.460938 162.628906 222.117188 164.507812 C 222.070312 164.765625 221.941406 164.976562 221.730469 165.140625 C 221.519531 165.300781 221.28125 165.371094 221.019531 165.351562 Z M 221.019531 165.351562 " fill-opacity="1" fill-rule="nonzero"/><path fill="#ffffff" d="M 232.183594 166.152344 C 234.464844 167.515625 237.949219 167.648438 240.328125 166.871094 C 242.703125 166.09375 244.179688 164.605469 245.285156 163.0625 C 247.992188 159.296875 248.972656 154.910156 248.109375 150.457031 C 247.691406 148.289062 246.660156 145.910156 243.875 144.335938 C 239.636719 141.941406 234.582031 142.164062 231.207031 145.246094 C 228 148.179688 228.03125 152.5625 228.324219 156.46875 C 228.574219 159.757812 228.613281 164.019531 232.183594 166.152344 Z M 232.183594 166.152344 " fill-opacity="1" fill-rule="nonzero"/><path fill="#ffffff" d="M 286.671875 69.257812 C 286.398438 69.234375 286.171875 69.121094 285.988281 68.917969 C 285.804688 68.71875 285.714844 68.480469 285.722656 68.207031 C 285.765625 66.085938 287.296875 64.078125 289.445312 63.308594 C 291.273438 62.652344 293.441406 62.863281 295.394531 63.886719 C 296.910156 64.683594 298.296875 65.933594 299.632812 67.714844 C 299.78125 67.941406 299.835938 68.191406 299.789062 68.460938 C 299.742188 68.730469 299.609375 68.945312 299.390625 69.109375 C 299.171875 69.277344 298.929688 69.34375 298.65625 69.3125 C 298.382812 69.28125 298.160156 69.160156 297.984375 68.953125 C 296.835938 67.421875 295.679688 66.363281 294.4375 65.71875 C 292.996094 64.960938 291.429688 64.792969 290.144531 65.253906 C 288.804688 65.730469 287.8125 66.992188 287.789062 68.25 C 287.785156 68.386719 287.757812 68.519531 287.703125 68.644531 C 287.648438 68.769531 287.570312 68.878906 287.472656 68.972656 C 287.375 69.066406 287.261719 69.140625 287.132812 69.191406 C 287.007812 69.238281 286.875 69.265625 286.738281 69.261719 Z M 286.671875 69.257812 " fill-opacity="1" fill-rule="nonzero"/><path fill="#ffffff" d="M 298.058594 76.617188 C 297.628906 76.582031 297.335938 76.367188 297.179688 75.964844 C 296.480469 74.183594 295.648438 72.855469 294.625 71.898438 C 293.4375 70.785156 291.972656 70.207031 290.609375 70.304688 C 289.191406 70.410156 287.902344 71.367188 287.539062 72.566406 C 287.449219 72.828125 287.28125 73.023438 287.035156 73.152344 C 286.789062 73.277344 286.53125 73.304688 286.265625 73.222656 C 286 73.144531 285.800781 72.984375 285.664062 72.742188 C 285.527344 72.5 285.492188 72.246094 285.5625 71.976562 C 286.167969 69.949219 288.179688 68.417969 290.457031 68.25 C 292.394531 68.109375 294.425781 68.890625 296.035156 70.398438 C 297.285156 71.574219 298.289062 73.144531 299.09375 75.214844 C 299.160156 75.378906 299.179688 75.550781 299.15625 75.726562 C 299.132812 75.902344 299.070312 76.0625 298.964844 76.207031 C 298.859375 76.347656 298.722656 76.457031 298.5625 76.53125 C 298.402344 76.605469 298.230469 76.632812 298.054688 76.621094 Z M 298.058594 76.617188 " fill-opacity="1" fill-rule="nonzero"/><path fill="#ffffff" d="M 296.753906 87.085938 C 296.492188 87.066406 296.269531 86.957031 296.089844 86.765625 C 295.90625 86.574219 295.8125 86.347656 295.804688 86.082031 C 295.757812 84.175781 295.421875 82.640625 294.789062 81.394531 C 294.050781 79.941406 292.871094 78.898438 291.554688 78.527344 C 290.183594 78.144531 288.648438 78.597656 287.898438 79.609375 C 287.726562 79.832031 287.503906 79.960938 287.222656 80 C 286.945312 80.039062 286.695312 79.972656 286.46875 79.808594 C 286.242188 79.640625 286.105469 79.417969 286.0625 79.140625 C 286.019531 78.863281 286.078125 78.609375 286.242188 78.378906 C 287.5 76.679688 289.914062 75.925781 292.113281 76.542969 C 293.980469 77.070312 295.628906 78.496094 296.628906 80.460938 C 297.40625 81.988281 297.808594 83.808594 297.867188 86.03125 C 297.871094 86.167969 297.847656 86.300781 297.800781 86.429688 C 297.75 86.558594 297.679688 86.671875 297.585938 86.769531 C 297.492188 86.871094 297.378906 86.945312 297.253906 87.003906 C 297.128906 87.058594 297 87.085938 296.863281 87.089844 C 296.828125 87.089844 296.792969 87.089844 296.753906 87.085938 Z M 296.753906 87.085938 " fill-opacity="1" fill-rule="nonzero"/><path fill="#ffffff" d="M 279.371094 68.683594 L 279.308594 68.679688 C 279.175781 68.660156 279.046875 68.617188 278.929688 68.546875 C 278.8125 68.480469 278.710938 68.390625 278.628906 68.28125 C 278.546875 68.171875 278.488281 68.050781 278.453125 67.917969 C 278.417969 67.789062 278.410156 67.652344 278.425781 67.519531 C 278.597656 66.273438 277.8125 64.871094 276.566406 64.191406 C 275.367188 63.539062 273.792969 63.460938 272.25 63.984375 C 270.925781 64.433594 269.613281 65.296875 268.246094 66.628906 C 268.042969 66.824219 267.800781 66.914062 267.519531 66.910156 C 267.234375 66.902344 266.996094 66.800781 266.800781 66.597656 C 266.605469 66.394531 266.507812 66.152344 266.507812 65.871094 C 266.507812 65.589844 266.609375 65.347656 266.808594 65.148438 C 268.402344 63.597656 269.964844 62.578125 271.589844 62.027344 C 273.675781 61.324219 275.851562 61.449219 277.554688 62.382812 C 279.554688 63.476562 280.757812 65.703125 280.472656 67.796875 C 280.4375 68.066406 280.3125 68.289062 280.097656 68.460938 C 279.886719 68.632812 279.644531 68.707031 279.371094 68.683594 Z M 279.371094 68.683594 " fill-opacity="1" fill-rule="nonzero"/><path fill="#ffffff" d="M 266.976562 74.1875 C 266.800781 74.175781 266.636719 74.121094 266.488281 74.019531 C 266.339844 73.921875 266.226562 73.796875 266.144531 73.636719 C 266.0625 73.480469 266.023438 73.3125 266.027344 73.136719 C 266.03125 72.957031 266.078125 72.792969 266.167969 72.640625 C 267.289062 70.71875 268.519531 69.320312 269.941406 68.355469 C 271.761719 67.117188 273.894531 66.660156 275.785156 67.101562 C 278.007812 67.617188 279.757812 69.445312 280.042969 71.539062 C 280.066406 71.679688 280.0625 71.816406 280.03125 71.949219 C 279.996094 72.085938 279.941406 72.210938 279.855469 72.324219 C 279.773438 72.4375 279.671875 72.53125 279.550781 72.601562 C 279.433594 72.671875 279.300781 72.71875 279.164062 72.738281 C 279.023438 72.753906 278.886719 72.746094 278.753906 72.710938 C 278.617188 72.671875 278.496094 72.609375 278.386719 72.523438 C 278.277344 72.4375 278.1875 72.332031 278.121094 72.210938 C 278.050781 72.085938 278.011719 71.957031 277.996094 71.816406 C 277.828125 70.574219 276.703125 69.433594 275.316406 69.109375 C 273.984375 68.800781 272.449219 69.148438 271.101562 70.0625 C 269.945312 70.847656 268.914062 72.03125 267.949219 73.679688 C 267.730469 74.054688 267.40625 74.222656 266.976562 74.1875 Z M 266.976562 74.1875 " fill-opacity="1" fill-rule="nonzero"/><path fill="#ffffff" d="M 266.644531 84.734375 C 266.609375 84.730469 266.574219 84.726562 266.539062 84.71875 C 266.402344 84.695312 266.277344 84.644531 266.164062 84.570312 C 266.050781 84.496094 265.953125 84.402344 265.878906 84.289062 C 265.800781 84.175781 265.746094 84.054688 265.71875 83.917969 C 265.691406 83.785156 265.6875 83.652344 265.714844 83.519531 C 266.113281 81.332031 266.800781 79.59375 267.804688 78.207031 C 269.097656 76.421875 270.945312 75.261719 272.871094 75.039062 C 275.136719 74.769531 277.40625 75.890625 278.386719 77.765625 C 278.453125 77.886719 278.492188 78.015625 278.507812 78.152344 C 278.519531 78.289062 278.507812 78.425781 278.46875 78.558594 C 278.425781 78.6875 278.363281 78.808594 278.273438 78.914062 C 278.1875 79.019531 278.082031 79.105469 277.957031 79.171875 C 277.835938 79.234375 277.707031 79.273438 277.566406 79.285156 C 277.429688 79.296875 277.296875 79.28125 277.164062 79.238281 C 277.03125 79.195312 276.914062 79.128906 276.808594 79.039062 C 276.703125 78.949219 276.621094 78.84375 276.558594 78.722656 C 275.96875 77.609375 274.527344 76.921875 273.113281 77.085938 C 271.757812 77.25 270.429688 78.097656 269.472656 79.417969 C 268.652344 80.550781 268.085938 82.011719 267.742188 83.890625 C 267.695312 84.148438 267.566406 84.359375 267.355469 84.523438 C 267.144531 84.683594 266.910156 84.753906 266.644531 84.734375 Z M 266.644531 84.734375 " fill-opacity="1" fill-rule="nonzero"/><path fill="#ffffff" d="M 277.804688 85.53125 C 280.085938 86.894531 283.570312 87.023438 285.949219 86.25 C 288.324219 85.472656 289.800781 83.984375 290.90625 82.441406 C 293.613281 78.675781 294.59375 74.289062 293.734375 69.835938 C 293.3125 67.667969 292.285156 65.289062 289.496094 63.714844 C 285.257812 61.320312 280.207031 61.542969 276.832031 64.625 C 273.621094 67.554688 273.652344 71.941406 273.945312 75.847656 C 274.195312 79.140625 274.234375 83.402344 277.804688 85.53125 Z M 277.804688 85.53125 " fill-opacity="1" fill-rule="nonzero"/><path fill="#ffffff" d="M 237.113281 46.910156 L 239.566406 46.910156 L 239.566406 148.785156 L 237.113281 148.785156 Z M 237.113281 46.910156 " fill-opacity="1" fill-rule="nonzero"/></svg>